<mxfile host="Electron" modified="2023-11-16T13:12:03.116Z" agent="Mozilla/5.0 (Windows NT 10.0; Win64; x64) AppleWebKit/537.36 (KHTML, like Gecko) draw.io/22.0.3 Chrome/114.0.5735.289 Electron/25.8.4 Safari/537.36" etag="3lUoN6UJKtULM8bZPjRR" version="22.0.3" type="device" pages="2">
  <diagram name="Page-1" id="-QaAmpdyX0NyYf9UMQ29">
    <mxGraphModel dx="1354" dy="776" grid="1" gridSize="10" guides="1" tooltips="1" connect="1" arrows="1" fold="1" page="1" pageScale="1" pageWidth="1169" pageHeight="827" math="0" shadow="0">
      <root>
        <mxCell id="0" />
        <mxCell id="1" parent="0" />
        <mxCell id="fcWhYaBBNZZwSrxhjebi-4" style="edgeStyle=orthogonalEdgeStyle;shape=connector;orthogonalLoop=1;jettySize=auto;html=1;labelBackgroundColor=default;strokeColor=default;align=center;verticalAlign=middle;fontFamily=Helvetica;fontSize=11;fontColor=default;endArrow=none;endFill=0;curved=1;" edge="1" parent="1" target="d3MX-oymNmeBdfXD_DnC-1">
          <mxGeometry relative="1" as="geometry">
            <mxPoint x="400" y="160" as="sourcePoint" />
          </mxGeometry>
        </mxCell>
        <mxCell id="fcWhYaBBNZZwSrxhjebi-3" value="dc1.firma.intra&lt;br&gt;192.168.196.10" style="rounded=0;whiteSpace=wrap;html=1;fontFamily=Helvetica;fontSize=11;fontColor=default;labelPosition=center;verticalLabelPosition=bottom;align=center;verticalAlign=top;" vertex="1" parent="1">
          <mxGeometry x="325" y="10" width="285" height="150" as="geometry" />
        </mxCell>
        <mxCell id="d3MX-oymNmeBdfXD_DnC-12" style="edgeStyle=orthogonalEdgeStyle;shape=connector;curved=1;rounded=1;orthogonalLoop=1;jettySize=auto;html=1;labelBackgroundColor=default;strokeColor=default;align=center;verticalAlign=middle;fontFamily=Helvetica;fontSize=11;fontColor=default;endArrow=none;endFill=0;" edge="1" parent="1" source="d3MX-oymNmeBdfXD_DnC-8" target="d3MX-oymNmeBdfXD_DnC-1">
          <mxGeometry relative="1" as="geometry" />
        </mxCell>
        <mxCell id="d3MX-oymNmeBdfXD_DnC-13" style="edgeStyle=orthogonalEdgeStyle;shape=connector;curved=1;rounded=1;orthogonalLoop=1;jettySize=auto;html=1;labelBackgroundColor=default;strokeColor=default;align=center;verticalAlign=middle;fontFamily=Helvetica;fontSize=11;fontColor=default;endArrow=none;endFill=0;" edge="1" parent="1" source="d3MX-oymNmeBdfXD_DnC-8" target="d3MX-oymNmeBdfXD_DnC-3">
          <mxGeometry relative="1" as="geometry" />
        </mxCell>
        <mxCell id="d3MX-oymNmeBdfXD_DnC-8" value="" style="rounded=0;whiteSpace=wrap;html=1;" vertex="1" parent="1">
          <mxGeometry x="608" y="307" width="120" height="423" as="geometry" />
        </mxCell>
        <mxCell id="d3MX-oymNmeBdfXD_DnC-15" style="edgeStyle=orthogonalEdgeStyle;shape=connector;curved=1;rounded=1;orthogonalLoop=1;jettySize=auto;html=1;labelBackgroundColor=default;strokeColor=default;align=center;verticalAlign=middle;fontFamily=Helvetica;fontSize=11;fontColor=default;endArrow=none;endFill=0;" edge="1" parent="1" source="d3MX-oymNmeBdfXD_DnC-1" target="d3MX-oymNmeBdfXD_DnC-14">
          <mxGeometry relative="1" as="geometry" />
        </mxCell>
        <mxCell id="d3MX-oymNmeBdfXD_DnC-1" value="VMWare NAT-verkon virtuaalikytkin&lt;br&gt;NAT-verkko 192.168.196.0/24" style="verticalLabelPosition=bottom;sketch=0;aspect=fixed;html=1;verticalAlign=top;strokeColor=none;align=center;outlineConnect=0;shape=mxgraph.citrix.switch;" vertex="1" parent="1">
          <mxGeometry x="400" y="330" width="92" height="41.5" as="geometry" />
        </mxCell>
        <mxCell id="d3MX-oymNmeBdfXD_DnC-9" style="edgeStyle=orthogonalEdgeStyle;orthogonalLoop=1;jettySize=auto;html=1;curved=1;endArrow=none;endFill=0;" edge="1" parent="1" source="d3MX-oymNmeBdfXD_DnC-2" target="d3MX-oymNmeBdfXD_DnC-1">
          <mxGeometry relative="1" as="geometry" />
        </mxCell>
        <mxCell id="d3MX-oymNmeBdfXD_DnC-2" value="VMWare-virtuaalikone (Guest)&lt;br&gt;192.168.196.132/24" style="verticalLabelPosition=bottom;sketch=0;aspect=fixed;html=1;verticalAlign=top;strokeColor=none;align=center;outlineConnect=0;shape=mxgraph.citrix.desktop;" vertex="1" parent="1">
          <mxGeometry x="220" y="180" width="89" height="98" as="geometry" />
        </mxCell>
        <mxCell id="fcWhYaBBNZZwSrxhjebi-6" style="edgeStyle=orthogonalEdgeStyle;shape=connector;orthogonalLoop=1;jettySize=auto;html=1;labelBackgroundColor=default;strokeColor=default;align=center;verticalAlign=middle;fontFamily=Helvetica;fontSize=11;fontColor=default;endArrow=none;endFill=0;curved=1;" edge="1" parent="1" source="d3MX-oymNmeBdfXD_DnC-3" target="fcWhYaBBNZZwSrxhjebi-5">
          <mxGeometry relative="1" as="geometry" />
        </mxCell>
        <mxCell id="d3MX-oymNmeBdfXD_DnC-3" value="Labraverkko" style="verticalLabelPosition=bottom;sketch=0;aspect=fixed;html=1;verticalAlign=top;strokeColor=none;align=center;outlineConnect=0;shape=mxgraph.citrix.cloud;" vertex="1" parent="1">
          <mxGeometry x="860" y="300" width="275.81" height="180" as="geometry" />
        </mxCell>
        <mxCell id="d3MX-oymNmeBdfXD_DnC-4" value="VMWare-reititn&lt;br&gt;192.168.196.2/24" style="verticalLabelPosition=bottom;sketch=0;aspect=fixed;html=1;verticalAlign=top;strokeColor=none;align=center;outlineConnect=0;shape=mxgraph.citrix.router;" vertex="1" parent="1">
          <mxGeometry x="640.75" y="330" width="55" height="36.5" as="geometry" />
        </mxCell>
        <mxCell id="d3MX-oymNmeBdfXD_DnC-11" style="edgeStyle=orthogonalEdgeStyle;shape=connector;curved=1;rounded=1;orthogonalLoop=1;jettySize=auto;html=1;labelBackgroundColor=default;strokeColor=default;align=center;verticalAlign=middle;fontFamily=Helvetica;fontSize=11;fontColor=default;endArrow=none;endFill=0;" edge="1" parent="1" source="d3MX-oymNmeBdfXD_DnC-5" target="d3MX-oymNmeBdfXD_DnC-1">
          <mxGeometry relative="1" as="geometry">
            <Array as="points">
              <mxPoint x="450" y="185" />
            </Array>
          </mxGeometry>
        </mxCell>
        <mxCell id="d3MX-oymNmeBdfXD_DnC-5" value="VMWare DHCP&lt;br&gt;192.168.196.254/24" style="verticalLabelPosition=bottom;sketch=0;aspect=fixed;html=1;verticalAlign=top;strokeColor=none;align=center;outlineConnect=0;shape=mxgraph.citrix.dhcp_server;" vertex="1" parent="1">
          <mxGeometry x="632.75" y="160" width="76" height="90" as="geometry" />
        </mxCell>
        <mxCell id="d3MX-oymNmeBdfXD_DnC-6" value="VMWare DNS&lt;br&gt;192.168.196.2/24" style="verticalLabelPosition=bottom;sketch=0;aspect=fixed;html=1;verticalAlign=top;strokeColor=none;align=center;outlineConnect=0;shape=mxgraph.citrix.dns_server;" vertex="1" parent="1">
          <mxGeometry x="630" y="437" width="76.5" height="92.5" as="geometry" />
        </mxCell>
        <mxCell id="d3MX-oymNmeBdfXD_DnC-7" value="VMWare WINS&lt;br&gt;192.168.196.2/24" style="verticalLabelPosition=bottom;sketch=0;aspect=fixed;html=1;verticalAlign=top;strokeColor=none;align=center;outlineConnect=0;shape=mxgraph.citrix.cache_server;" vertex="1" parent="1">
          <mxGeometry x="632.75" y="590" width="71" height="97.5" as="geometry" />
        </mxCell>
        <mxCell id="d3MX-oymNmeBdfXD_DnC-14" value="Oikea tietokone (Host)&lt;br&gt;192.168.196.1/24" style="verticalLabelPosition=bottom;sketch=0;aspect=fixed;html=1;verticalAlign=top;strokeColor=none;align=center;outlineConnect=0;shape=mxgraph.citrix.desktop;" vertex="1" parent="1">
          <mxGeometry x="210" y="540" width="89" height="98" as="geometry" />
        </mxCell>
        <mxCell id="fcWhYaBBNZZwSrxhjebi-1" value="Hakemistopalvelu (AD)" style="verticalLabelPosition=bottom;sketch=0;aspect=fixed;html=1;verticalAlign=top;strokeColor=none;align=center;outlineConnect=0;shape=mxgraph.citrix.directory_server;fontFamily=Helvetica;fontSize=11;fontColor=default;" vertex="1" parent="1">
          <mxGeometry x="380" y="22" width="65" height="88.5" as="geometry" />
        </mxCell>
        <mxCell id="fcWhYaBBNZZwSrxhjebi-2" value="DNS-palvelin" style="verticalLabelPosition=bottom;sketch=0;aspect=fixed;html=1;verticalAlign=top;strokeColor=none;align=center;outlineConnect=0;shape=mxgraph.citrix.dns_server;fontFamily=Helvetica;fontSize=11;fontColor=default;" vertex="1" parent="1">
          <mxGeometry x="480" y="22" width="76.5" height="92.5" as="geometry" />
        </mxCell>
        <mxCell id="fcWhYaBBNZZwSrxhjebi-5" value="&lt;font style=&quot;font-size: 28px;&quot;&gt;Internet&lt;/font&gt;" style="verticalLabelPosition=middle;sketch=0;aspect=fixed;html=1;verticalAlign=middle;strokeColor=none;align=center;outlineConnect=0;shape=mxgraph.citrix.cloud;labelPosition=center;" vertex="1" parent="1">
          <mxGeometry x="840" y="34.32" width="284.52" height="185.68" as="geometry" />
        </mxCell>
        <mxCell id="fcWhYaBBNZZwSrxhjebi-7" value="DNS-palvelin&lt;br&gt;10.66.0.2" style="verticalLabelPosition=bottom;sketch=0;aspect=fixed;html=1;verticalAlign=top;strokeColor=none;align=center;outlineConnect=0;shape=mxgraph.citrix.dns_server;fontFamily=Helvetica;fontSize=11;fontColor=default;" vertex="1" parent="1">
          <mxGeometry x="940" y="355" width="57.89" height="70" as="geometry" />
        </mxCell>
        <mxCell id="fcWhYaBBNZZwSrxhjebi-8" value="DNS-palvelin&lt;br&gt;10.66.0.3" style="verticalLabelPosition=bottom;sketch=0;aspect=fixed;html=1;verticalAlign=top;strokeColor=none;align=center;outlineConnect=0;shape=mxgraph.citrix.dns_server;fontFamily=Helvetica;fontSize=11;fontColor=default;" vertex="1" parent="1">
          <mxGeometry x="1010" y="344" width="57.89" height="70" as="geometry" />
        </mxCell>
        <mxCell id="fcWhYaBBNZZwSrxhjebi-10" value="" style="endArrow=classic;html=1;rounded=1;labelBackgroundColor=default;strokeColor=#CC0000;align=center;verticalAlign=middle;fontFamily=Helvetica;fontSize=11;fontColor=default;shape=connector;curved=1;strokeWidth=5;" edge="1" parent="1" source="fcWhYaBBNZZwSrxhjebi-2" target="d3MX-oymNmeBdfXD_DnC-6">
          <mxGeometry width="50" height="50" relative="1" as="geometry">
            <mxPoint x="740" y="110" as="sourcePoint" />
            <mxPoint x="790" y="60" as="targetPoint" />
            <Array as="points">
              <mxPoint x="540" y="310" />
            </Array>
          </mxGeometry>
        </mxCell>
        <mxCell id="fcWhYaBBNZZwSrxhjebi-12" value="" style="endArrow=classic;html=1;rounded=1;labelBackgroundColor=default;strokeColor=#CC0000;align=center;verticalAlign=middle;fontFamily=Helvetica;fontSize=11;fontColor=default;shape=connector;curved=1;strokeWidth=5;" edge="1" parent="1" source="d3MX-oymNmeBdfXD_DnC-6">
          <mxGeometry width="50" height="50" relative="1" as="geometry">
            <mxPoint x="890" y="450" as="sourcePoint" />
            <mxPoint x="940" y="400" as="targetPoint" />
            <Array as="points">
              <mxPoint x="840" y="480" />
            </Array>
          </mxGeometry>
        </mxCell>
        <mxCell id="fcWhYaBBNZZwSrxhjebi-13" value="operaattorin&lt;br&gt;DNS" style="verticalLabelPosition=bottom;sketch=0;aspect=fixed;html=1;verticalAlign=top;strokeColor=none;align=center;outlineConnect=0;shape=mxgraph.citrix.dns_server;fontFamily=Helvetica;fontSize=11;fontColor=default;" vertex="1" parent="1">
          <mxGeometry x="1040" y="90" width="57.89" height="70" as="geometry" />
        </mxCell>
        <mxCell id="fcWhYaBBNZZwSrxhjebi-14" value="" style="endArrow=classic;html=1;rounded=1;labelBackgroundColor=default;strokeColor=#CC0000;align=center;verticalAlign=middle;fontFamily=Helvetica;fontSize=11;fontColor=default;shape=connector;curved=1;strokeWidth=5;" edge="1" parent="1" target="fcWhYaBBNZZwSrxhjebi-13">
          <mxGeometry width="50" height="50" relative="1" as="geometry">
            <mxPoint x="980" y="350" as="sourcePoint" />
            <mxPoint x="1030" y="300" as="targetPoint" />
            <Array as="points">
              <mxPoint x="930" y="240" />
            </Array>
          </mxGeometry>
        </mxCell>
        <mxCell id="fcWhYaBBNZZwSrxhjebi-15" value="" style="endArrow=classic;html=1;rounded=1;labelBackgroundColor=default;strokeColor=#CC0000;align=center;verticalAlign=middle;fontFamily=Helvetica;fontSize=11;fontColor=default;shape=connector;curved=1;strokeWidth=5;" edge="1" parent="1">
          <mxGeometry width="50" height="50" relative="1" as="geometry">
            <mxPoint x="800" y="610" as="sourcePoint" />
            <mxPoint x="850" y="610" as="targetPoint" />
          </mxGeometry>
        </mxCell>
        <mxCell id="fcWhYaBBNZZwSrxhjebi-16" value="DNS forward" style="text;html=1;strokeColor=none;fillColor=none;align=center;verticalAlign=middle;whiteSpace=wrap;rounded=0;fontSize=11;fontFamily=Helvetica;fontColor=default;" vertex="1" parent="1">
          <mxGeometry x="860" y="596" width="60" height="30" as="geometry" />
        </mxCell>
        <mxCell id="fcWhYaBBNZZwSrxhjebi-17" value="" style="endArrow=classic;html=1;rounded=1;labelBackgroundColor=default;strokeColor=#3399FF;align=center;verticalAlign=middle;fontFamily=Helvetica;fontSize=11;fontColor=default;shape=connector;curved=1;strokeWidth=5;" edge="1" parent="1" source="d3MX-oymNmeBdfXD_DnC-2" target="fcWhYaBBNZZwSrxhjebi-2">
          <mxGeometry width="50" height="50" relative="1" as="geometry">
            <mxPoint x="300" y="210" as="sourcePoint" />
            <mxPoint x="350" y="160" as="targetPoint" />
            <Array as="points">
              <mxPoint x="290" y="100" />
            </Array>
          </mxGeometry>
        </mxCell>
        <mxCell id="fcWhYaBBNZZwSrxhjebi-19" value="" style="endArrow=classic;html=1;rounded=1;labelBackgroundColor=default;strokeColor=#3399FF;align=center;verticalAlign=middle;fontFamily=Helvetica;fontSize=11;fontColor=default;shape=connector;curved=1;strokeWidth=5;" edge="1" parent="1">
          <mxGeometry width="50" height="50" relative="1" as="geometry">
            <mxPoint x="800" y="680" as="sourcePoint" />
            <mxPoint x="850" y="680" as="targetPoint" />
          </mxGeometry>
        </mxCell>
        <mxCell id="fcWhYaBBNZZwSrxhjebi-20" value="DNS-kysely" style="text;html=1;strokeColor=none;fillColor=none;align=center;verticalAlign=middle;whiteSpace=wrap;rounded=0;fontSize=11;fontFamily=Helvetica;fontColor=default;" vertex="1" parent="1">
          <mxGeometry x="860" y="664.5" width="60" height="30" as="geometry" />
        </mxCell>
      </root>
    </mxGraphModel>
  </diagram>
  <diagram id="lK5U7o4TgGh_yP6n5nPM" name="Page-2">
    <mxGraphModel dx="1083" dy="621" grid="1" gridSize="10" guides="1" tooltips="1" connect="1" arrows="1" fold="1" page="1" pageScale="1" pageWidth="1169" pageHeight="827" math="0" shadow="0">
      <root>
        <mxCell id="0" />
        <mxCell id="1" parent="0" />
        <mxCell id="zvAT4JsIg48ughsEzU4a-12" style="edgeStyle=orthogonalEdgeStyle;shape=connector;rounded=0;orthogonalLoop=1;jettySize=auto;html=1;entryX=0.5;entryY=0;entryDx=0;entryDy=0;labelBackgroundColor=default;strokeColor=default;align=center;verticalAlign=middle;fontFamily=Helvetica;fontSize=11;fontColor=default;endArrow=none;endFill=0;" edge="1" parent="1" source="zvAT4JsIg48ughsEzU4a-1" target="zvAT4JsIg48ughsEzU4a-2">
          <mxGeometry relative="1" as="geometry">
            <Array as="points">
              <mxPoint x="585" y="190" />
              <mxPoint x="220" y="190" />
            </Array>
          </mxGeometry>
        </mxCell>
        <mxCell id="zvAT4JsIg48ughsEzU4a-15" style="edgeStyle=orthogonalEdgeStyle;shape=connector;rounded=0;orthogonalLoop=1;jettySize=auto;html=1;entryX=0.5;entryY=0;entryDx=0;entryDy=0;labelBackgroundColor=default;strokeColor=default;align=center;verticalAlign=middle;fontFamily=Helvetica;fontSize=11;fontColor=default;endArrow=none;endFill=0;" edge="1" parent="1" source="zvAT4JsIg48ughsEzU4a-1" target="zvAT4JsIg48ughsEzU4a-3">
          <mxGeometry relative="1" as="geometry">
            <Array as="points">
              <mxPoint x="585" y="190" />
              <mxPoint x="380" y="190" />
            </Array>
          </mxGeometry>
        </mxCell>
        <mxCell id="zvAT4JsIg48ughsEzU4a-16" style="edgeStyle=orthogonalEdgeStyle;shape=connector;rounded=0;orthogonalLoop=1;jettySize=auto;html=1;labelBackgroundColor=default;strokeColor=default;align=center;verticalAlign=middle;fontFamily=Helvetica;fontSize=11;fontColor=default;endArrow=none;endFill=0;" edge="1" parent="1" source="zvAT4JsIg48ughsEzU4a-1" target="zvAT4JsIg48ughsEzU4a-5">
          <mxGeometry relative="1" as="geometry">
            <Array as="points">
              <mxPoint x="585" y="190" />
              <mxPoint x="800" y="190" />
            </Array>
          </mxGeometry>
        </mxCell>
        <mxCell id="zvAT4JsIg48ughsEzU4a-17" style="edgeStyle=orthogonalEdgeStyle;shape=connector;rounded=0;orthogonalLoop=1;jettySize=auto;html=1;labelBackgroundColor=default;strokeColor=default;align=center;verticalAlign=middle;fontFamily=Helvetica;fontSize=11;fontColor=default;endArrow=none;endFill=0;" edge="1" parent="1" source="zvAT4JsIg48ughsEzU4a-1" target="zvAT4JsIg48ughsEzU4a-6">
          <mxGeometry relative="1" as="geometry">
            <Array as="points">
              <mxPoint x="585" y="190" />
              <mxPoint x="950" y="190" />
            </Array>
          </mxGeometry>
        </mxCell>
        <mxCell id="zvAT4JsIg48ughsEzU4a-1" value=". (juuri)" style="rounded=1;whiteSpace=wrap;html=1;fontFamily=Helvetica;fontSize=11;fillColor=#ffcd28;gradientColor=#ffa500;strokeColor=#d79b00;glass=1;" vertex="1" parent="1">
          <mxGeometry x="525" y="110" width="120" height="60" as="geometry" />
        </mxCell>
        <mxCell id="zvAT4JsIg48ughsEzU4a-2" value=".com" style="rounded=1;whiteSpace=wrap;html=1;fontFamily=Helvetica;fontSize=11;fillColor=#ffcd28;gradientColor=#ffa500;strokeColor=#d79b00;glass=1;" vertex="1" parent="1">
          <mxGeometry x="160" y="210" width="120" height="60" as="geometry" />
        </mxCell>
        <mxCell id="zvAT4JsIg48ughsEzU4a-3" value=".edu" style="rounded=1;whiteSpace=wrap;html=1;fontFamily=Helvetica;fontSize=11;fillColor=#ffcd28;gradientColor=#ffa500;strokeColor=#d79b00;glass=1;" vertex="1" parent="1">
          <mxGeometry x="320" y="210" width="120" height="60" as="geometry" />
        </mxCell>
        <mxCell id="zvAT4JsIg48ughsEzU4a-4" value=".net" style="rounded=1;whiteSpace=wrap;html=1;fontFamily=Helvetica;fontSize=11;fillColor=#ffcd28;gradientColor=#ffa500;strokeColor=#d79b00;glass=1;" vertex="1" parent="1">
          <mxGeometry x="480" y="210" width="120" height="60" as="geometry" />
        </mxCell>
        <mxCell id="zvAT4JsIg48ughsEzU4a-18" style="edgeStyle=orthogonalEdgeStyle;shape=connector;rounded=0;orthogonalLoop=1;jettySize=auto;html=1;entryX=0.5;entryY=0;entryDx=0;entryDy=0;labelBackgroundColor=default;strokeColor=default;align=center;verticalAlign=middle;fontFamily=Helvetica;fontSize=11;fontColor=default;endArrow=none;endFill=0;" edge="1" parent="1" source="zvAT4JsIg48ughsEzU4a-5" target="zvAT4JsIg48ughsEzU4a-8">
          <mxGeometry relative="1" as="geometry">
            <Array as="points">
              <mxPoint x="800" y="300" />
              <mxPoint x="640" y="300" />
            </Array>
          </mxGeometry>
        </mxCell>
        <mxCell id="zvAT4JsIg48ughsEzU4a-19" style="edgeStyle=orthogonalEdgeStyle;shape=connector;rounded=0;orthogonalLoop=1;jettySize=auto;html=1;labelBackgroundColor=default;strokeColor=default;align=center;verticalAlign=middle;fontFamily=Helvetica;fontSize=11;fontColor=default;endArrow=none;endFill=0;" edge="1" parent="1" source="zvAT4JsIg48ughsEzU4a-5" target="zvAT4JsIg48ughsEzU4a-9">
          <mxGeometry relative="1" as="geometry" />
        </mxCell>
        <mxCell id="zvAT4JsIg48ughsEzU4a-20" style="edgeStyle=orthogonalEdgeStyle;shape=connector;rounded=0;orthogonalLoop=1;jettySize=auto;html=1;labelBackgroundColor=default;strokeColor=default;align=center;verticalAlign=middle;fontFamily=Helvetica;fontSize=11;fontColor=default;endArrow=none;endFill=0;" edge="1" parent="1" source="zvAT4JsIg48ughsEzU4a-5" target="zvAT4JsIg48ughsEzU4a-10">
          <mxGeometry relative="1" as="geometry">
            <Array as="points">
              <mxPoint x="800" y="300" />
              <mxPoint x="960" y="300" />
            </Array>
          </mxGeometry>
        </mxCell>
        <mxCell id="zvAT4JsIg48ughsEzU4a-5" value=".fi" style="rounded=1;whiteSpace=wrap;html=1;fontFamily=Helvetica;fontSize=11;fillColor=#ffcd28;gradientColor=#ffa500;strokeColor=#d79b00;glass=1;" vertex="1" parent="1">
          <mxGeometry x="740" y="210" width="120" height="60" as="geometry" />
        </mxCell>
        <mxCell id="zvAT4JsIg48ughsEzU4a-6" value=".se" style="rounded=1;whiteSpace=wrap;html=1;fontFamily=Helvetica;fontSize=11;fillColor=#ffcd28;gradientColor=#ffa500;strokeColor=#d79b00;glass=1;" vertex="1" parent="1">
          <mxGeometry x="890" y="210" width="120" height="60" as="geometry" />
        </mxCell>
        <mxCell id="zvAT4JsIg48ughsEzU4a-7" value="Verkkotyyppi" style="text;html=1;strokeColor=none;fillColor=none;align=center;verticalAlign=middle;whiteSpace=wrap;rounded=0;fontSize=11;fontFamily=Helvetica;fontColor=default;" vertex="1" parent="1">
          <mxGeometry x="40" y="225" width="60" height="30" as="geometry" />
        </mxCell>
        <mxCell id="zvAT4JsIg48ughsEzU4a-22" style="edgeStyle=orthogonalEdgeStyle;shape=connector;rounded=0;orthogonalLoop=1;jettySize=auto;html=1;entryX=0.5;entryY=0;entryDx=0;entryDy=0;labelBackgroundColor=default;strokeColor=default;align=center;verticalAlign=middle;fontFamily=Helvetica;fontSize=11;fontColor=default;endArrow=none;endFill=0;" edge="1" parent="1" source="zvAT4JsIg48ughsEzU4a-8" target="zvAT4JsIg48ughsEzU4a-21">
          <mxGeometry relative="1" as="geometry" />
        </mxCell>
        <mxCell id="zvAT4JsIg48ughsEzU4a-8" value=".raseko" style="rounded=1;whiteSpace=wrap;html=1;fontFamily=Helvetica;fontSize=11;fillColor=#ffcd28;gradientColor=#ffa500;strokeColor=#d79b00;glass=1;" vertex="1" parent="1">
          <mxGeometry x="580" y="320" width="120" height="60" as="geometry" />
        </mxCell>
        <mxCell id="zvAT4JsIg48ughsEzU4a-37" style="edgeStyle=orthogonalEdgeStyle;shape=connector;rounded=0;orthogonalLoop=1;jettySize=auto;html=1;exitX=0.5;exitY=1;exitDx=0;exitDy=0;labelBackgroundColor=default;strokeColor=default;align=center;verticalAlign=middle;fontFamily=Helvetica;fontSize=11;fontColor=default;endArrow=none;endFill=0;" edge="1" parent="1" source="zvAT4JsIg48ughsEzU4a-9" target="zvAT4JsIg48ughsEzU4a-36">
          <mxGeometry relative="1" as="geometry" />
        </mxCell>
        <mxCell id="zvAT4JsIg48ughsEzU4a-9" value=".iltalehti" style="rounded=1;whiteSpace=wrap;html=1;fontFamily=Helvetica;fontSize=11;fillColor=#ffcd28;gradientColor=#ffa500;strokeColor=#d79b00;glass=1;" vertex="1" parent="1">
          <mxGeometry x="740" y="320" width="120" height="60" as="geometry" />
        </mxCell>
        <mxCell id="zvAT4JsIg48ughsEzU4a-10" value=".yle" style="rounded=1;whiteSpace=wrap;html=1;fontFamily=Helvetica;fontSize=11;fillColor=#ffcd28;gradientColor=#ffa500;strokeColor=#d79b00;glass=1;" vertex="1" parent="1">
          <mxGeometry x="900" y="320" width="120" height="60" as="geometry" />
        </mxCell>
        <mxCell id="zvAT4JsIg48ughsEzU4a-11" value="Organisaatio" style="text;html=1;strokeColor=none;fillColor=none;align=center;verticalAlign=middle;whiteSpace=wrap;rounded=0;fontSize=11;fontFamily=Helvetica;fontColor=default;" vertex="1" parent="1">
          <mxGeometry x="40" y="335" width="60" height="30" as="geometry" />
        </mxCell>
        <mxCell id="zvAT4JsIg48ughsEzU4a-29" style="edgeStyle=orthogonalEdgeStyle;shape=connector;rounded=0;orthogonalLoop=1;jettySize=auto;html=1;labelBackgroundColor=default;strokeColor=default;align=center;verticalAlign=middle;fontFamily=Helvetica;fontSize=11;fontColor=default;endArrow=none;endFill=0;" edge="1" parent="1" source="zvAT4JsIg48ughsEzU4a-21" target="zvAT4JsIg48ughsEzU4a-26">
          <mxGeometry relative="1" as="geometry">
            <Array as="points">
              <mxPoint x="540" y="560" />
            </Array>
          </mxGeometry>
        </mxCell>
        <mxCell id="zvAT4JsIg48ughsEzU4a-21" value=".edu" style="rounded=1;whiteSpace=wrap;html=1;fontFamily=Helvetica;fontSize=11;fillColor=#ffcd28;gradientColor=#ffa500;strokeColor=#d79b00;glass=1;" vertex="1" parent="1">
          <mxGeometry x="480" y="440" width="120" height="60" as="geometry" />
        </mxCell>
        <mxCell id="zvAT4JsIg48ughsEzU4a-24" style="edgeStyle=orthogonalEdgeStyle;shape=connector;rounded=0;orthogonalLoop=1;jettySize=auto;html=1;entryX=0.5;entryY=1;entryDx=0;entryDy=0;labelBackgroundColor=default;strokeColor=default;align=center;verticalAlign=middle;fontFamily=Helvetica;fontSize=11;fontColor=default;endArrow=none;endFill=0;" edge="1" parent="1" source="zvAT4JsIg48ughsEzU4a-23" target="zvAT4JsIg48ughsEzU4a-8">
          <mxGeometry relative="1" as="geometry" />
        </mxCell>
        <mxCell id="zvAT4JsIg48ughsEzU4a-23" value="www" style="verticalLabelPosition=bottom;sketch=0;aspect=fixed;html=1;verticalAlign=top;strokeColor=none;align=center;outlineConnect=0;shape=mxgraph.citrix.web_server;fontFamily=Helvetica;fontSize=11;fontColor=default;" vertex="1" parent="1">
          <mxGeometry x="514.5" y="600" width="51" height="60" as="geometry" />
        </mxCell>
        <mxCell id="zvAT4JsIg48ughsEzU4a-26" value="ict-opinnot" style="verticalLabelPosition=bottom;sketch=0;aspect=fixed;html=1;verticalAlign=top;strokeColor=none;align=center;outlineConnect=0;shape=mxgraph.citrix.web_server;fontFamily=Helvetica;fontSize=11;fontColor=default;" vertex="1" parent="1">
          <mxGeometry x="389" y="530" width="51" height="60" as="geometry" />
        </mxCell>
        <mxCell id="zvAT4JsIg48ughsEzU4a-30" value="13 kpl identtisiä nimipalvelimia" style="text;html=1;strokeColor=none;fillColor=none;align=center;verticalAlign=middle;whiteSpace=wrap;rounded=0;fontSize=11;fontFamily=Helvetica;fontColor=default;" vertex="1" parent="1">
          <mxGeometry x="660" y="80" width="100" height="30" as="geometry" />
        </mxCell>
        <mxCell id="zvAT4JsIg48ughsEzU4a-31" value="Operaattoreiden&lt;br&gt;nimipalvelimia" style="text;html=1;strokeColor=none;fillColor=none;align=center;verticalAlign=middle;whiteSpace=wrap;rounded=0;fontSize=11;fontFamily=Helvetica;fontColor=default;" vertex="1" parent="1">
          <mxGeometry x="640" y="225" width="100" height="30" as="geometry" />
        </mxCell>
        <mxCell id="zvAT4JsIg48ughsEzU4a-32" value="Rasekon DNS" style="verticalLabelPosition=bottom;sketch=0;aspect=fixed;html=1;verticalAlign=top;strokeColor=none;align=center;outlineConnect=0;shape=mxgraph.citrix.dns_server;fontFamily=Helvetica;fontSize=11;fontColor=default;" vertex="1" parent="1">
          <mxGeometry x="475.38" y="320" width="49.62" height="60" as="geometry" />
        </mxCell>
        <mxCell id="zvAT4JsIg48ughsEzU4a-33" style="edgeStyle=orthogonalEdgeStyle;shape=connector;rounded=0;orthogonalLoop=1;jettySize=auto;html=1;labelBackgroundColor=default;strokeColor=default;align=center;verticalAlign=middle;fontFamily=Helvetica;fontSize=11;fontColor=default;endArrow=none;endFill=0;entryX=0;entryY=0.5;entryDx=0;entryDy=0;" edge="1" parent="1" source="zvAT4JsIg48ughsEzU4a-32" target="zvAT4JsIg48ughsEzU4a-8">
          <mxGeometry relative="1" as="geometry">
            <mxPoint x="570" y="350" as="targetPoint" />
          </mxGeometry>
        </mxCell>
        <mxCell id="zvAT4JsIg48ughsEzU4a-35" style="edgeStyle=orthogonalEdgeStyle;shape=connector;rounded=0;orthogonalLoop=1;jettySize=auto;html=1;labelBackgroundColor=default;strokeColor=default;align=center;verticalAlign=middle;fontFamily=Helvetica;fontSize=11;fontColor=default;endArrow=none;endFill=0;" edge="1" parent="1" source="zvAT4JsIg48ughsEzU4a-34">
          <mxGeometry relative="1" as="geometry">
            <mxPoint x="640" y="630" as="targetPoint" />
          </mxGeometry>
        </mxCell>
        <mxCell id="zvAT4JsIg48ughsEzU4a-34" value="Rasekon työasema" style="verticalLabelPosition=bottom;sketch=0;aspect=fixed;html=1;verticalAlign=top;strokeColor=none;align=center;outlineConnect=0;shape=mxgraph.citrix.desktop;fontFamily=Helvetica;fontSize=11;fontColor=default;" vertex="1" parent="1">
          <mxGeometry x="730" y="606" width="43.59" height="48" as="geometry" />
        </mxCell>
        <mxCell id="zvAT4JsIg48ughsEzU4a-36" value="www" style="verticalLabelPosition=bottom;sketch=0;aspect=fixed;html=1;verticalAlign=top;strokeColor=none;align=center;outlineConnect=0;shape=mxgraph.citrix.web_server;fontFamily=Helvetica;fontSize=11;fontColor=default;" vertex="1" parent="1">
          <mxGeometry x="839" y="430" width="51" height="60" as="geometry" />
        </mxCell>
      </root>
    </mxGraphModel>
  </diagram>
</mxfile>
